{
	"asset":{
		"generator":"Khronos glTF Blender I/O v4.3.47",
		"version":"2.0"
	},
	"extensionsUsed":[
		"KHR_materials_specular",
		"KHR_materials_ior"
	],
	"scene":0,
	"scenes":[
		{
			"name":"Scene",
			"nodes":[
				0
			]
		}
	],
	"nodes":[
		{
			"mesh":0,
			"name":"durt",
			"rotation":[
				0.7071068286895752,
				0,
				0,
				0.7071068286895752
			],
			"scale":[
				1.5,
				1.5,
				1.5
			],
			"translation":[
				20.62090301513672,
				0,
				0
			]
		}
	],
	"materials":[
		{
			"doubleSided":true,
			"extensions":{
				"KHR_materials_specular":{
					"specularFactor":0.6666666865348816
				},
				"KHR_materials_ior":{
					"ior":1
				}
			},
			"name":"Material.001",
			"pbrMetallicRoughness":{
				"baseColorTexture":{
					"index":0
				},
				"metallicFactor":0,
				"metallicRoughnessTexture":{
					"index":1
				}
			}
		},
		{
			"doubleSided":true,
			"extensions":{
				"KHR_materials_specular":{
					"specularFactor":0.6666666865348816
				}
			},
			"name":"pebbles",
			"pbrMetallicRoughness":{
				"baseColorTexture":{
					"index":2
				},
				"metallicFactor":0,
				"metallicRoughnessTexture":{
					"index":3
				}
			}
		}
	],
	"meshes":[
		{
			"name":"durt",
			"primitives":[
				{
					"attributes":{
						"POSITION":0,
						"NORMAL":1,
						"TEXCOORD_0":2
					},
					"indices":3,
					"material":0
				},
				{
					"attributes":{
						"POSITION":4,
						"NORMAL":5,
						"TEXCOORD_0":6
					},
					"indices":7,
					"material":1
				}
			]
		}
	],
	"textures":[
		{
			"sampler":0,
			"source":0
		},
		{
			"sampler":0,
			"source":1
		},
		{
			"sampler":0,
			"source":2
		},
		{
			"sampler":0,
			"source":3
		}
	],
	"images":[
		{
			"mimeType":"image/png",
			"name":"-color",
			"uri":"-color.png"
		},
		{
			"mimeType":"image/png",
			"name":"-roughness",
			"uri":"-roughness.png"
		},
		{
			"mimeType":"image/png",
			"name":"pebbles-color",
			"uri":"pebbles-color.png"
		},
		{
			"mimeType":"image/png",
			"name":"pebbles-roughness",
			"uri":"pebbles-roughness.png"
		}
	],
	"accessors":[
		{
			"bufferView":0,
			"componentType":5126,
			"count":277,
			"max":[
				-12.281499862670898,
				1.5572099685668945,
				1.5061099529266357
			],
			"min":[
				-15.305500030517578,
				-1.4681799411773682,
				-1.500849962234497
			],
			"type":"VEC3"
		},
		{
			"bufferView":1,
			"componentType":5126,
			"count":277,
			"type":"VEC3"
		},
		{
			"bufferView":2,
			"componentType":5126,
			"count":277,
			"type":"VEC2"
		},
		{
			"bufferView":3,
			"componentType":5123,
			"count":480,
			"type":"SCALAR"
		},
		{
			"bufferView":4,
			"componentType":5126,
			"count":108,
			"max":[
				-13.05840015411377,
				0.5149750113487244,
				-1.4826099872589111
			],
			"min":[
				-14.407699584960938,
				-0.8906869888305664,
				-1.551800012588501
			],
			"type":"VEC3"
		},
		{
			"bufferView":5,
			"componentType":5126,
			"count":108,
			"type":"VEC3"
		},
		{
			"bufferView":6,
			"componentType":5126,
			"count":108,
			"type":"VEC2"
		},
		{
			"bufferView":7,
			"componentType":5123,
			"count":108,
			"type":"SCALAR"
		}
	],
	"bufferViews":[
		{
			"buffer":0,
			"byteLength":3324,
			"byteOffset":0,
			"target":34962
		},
		{
			"buffer":0,
			"byteLength":3324,
			"byteOffset":3324,
			"target":34962
		},
		{
			"buffer":0,
			"byteLength":2216,
			"byteOffset":6648,
			"target":34962
		},
		{
			"buffer":0,
			"byteLength":960,
			"byteOffset":8864,
			"target":34963
		},
		{
			"buffer":0,
			"byteLength":1296,
			"byteOffset":9824,
			"target":34962
		},
		{
			"buffer":0,
			"byteLength":1296,
			"byteOffset":11120,
			"target":34962
		},
		{
			"buffer":0,
			"byteLength":864,
			"byteOffset":12416,
			"target":34962
		},
		{
			"buffer":0,
			"byteLength":216,
			"byteOffset":13280,
			"target":34963
		}
	],
	"samplers":[
		{
			"magFilter":9729,
			"minFilter":9987
		}
	],
	"buffers":[
		{
			"byteLength":13496,
			"uri":"durt.bin"
		}
	]
}
